<?xml version="1.0" encoding="UTF-8"?>
<svg id="Layer_2" data-name="Layer 2" xmlns="http://www.w3.org/2000/svg" viewBox="0 0 40.05 103">
  <defs>
    <style>
      .cls-1 {
        fill: #231f20;
        stroke-width: 0px;
      }
    </style>
  </defs>
  <g id="Bishop">
    <path class="cls-1" d="M38.57,96.92H1.48c-.82,0-1.48.39-1.48.87v4.34c0,.48.66.87,1.48.87h37.08c.82,0,1.48-.39,1.48-.87v-4.34c0-.48-.66-.87-1.48-.87Z"/>
    <path class="cls-1" d="M36.13,75.33H3.92c-.71,0-1.29.23-1.29.51v2.57c0,.28.58.51,1.29.51h32.21c.71,0,1.29-.23,1.29-.51v-2.57c0-.28-.58-.51-1.29-.51Z"/>
    <path class="cls-1" d="M31.41,79.58c-1.8-.5-3.7-.1-6.11-.22-6.07.08-12.8-.17-16.28.1-1.51.6-2.44,2.61-2.93,4.12-.38,1.66,1.22,1.34,2.39,1.38,5.18,0,20.78,0,24.16,0,3.12.19.17-4.33-1.13-5.32l-.1-.05Z"/>
    <path class="cls-1" d="M34.62,86.26c-1.7-.34-3.9-.2-7.6-.24-4.71-.01-9.7-.03-14.44-.02-5.48.06-7.88-.25-9.67,1.57-2.3,2.51-2.33,7.01,2.21,8.58,1.28.36,2.74.34,4.19.35,4.41,0,13.88,0,19.53,0,2.28-.04,4.16.15,6.14-.33,4.99-1.62,4.94-8.43-.22-9.89l-.14-.03Z"/>
    <path class="cls-1" d="M30.71,42.66c0-.1,0-.19.02-.29,0-.08,0-.16.01-.24,0,.04,0,.09.01.13,0,0,0,0,0,0-.14-1.79-.26-3.51-.36-5.09l-.04-.51c-.19-2.7-.72-2.96-2.61-2.96h-14.55c-1.18.03-2.19,0-2.4,1.84-.16,2.03-.34,4.26-.52,6.59.51,9.96-.01,20.33-3.68,30.1-.07.92-.06,1.55.28,2.06.41.6.95.58,1.86.59h.59c2.78-.06,6.07-.03,9.45,0,2.09.02,4.22.04,6.27.04,3.16,0,6.14-.05,8.58-.21.23-.01.47-.22.62-.45.13-.21.19-.48.18-.75-.02-.47-.05-.98-.07-1.48-3.52-9.54-4.14-19.65-3.64-29.38Z"/>
    <path class="cls-1" d="M35.96,31.45c-1.48,1.96-6.42,1.83-15.18,1.83s-15.57.36-16.56-1.83c-1.38-3.05,7.8-5.5,16.56-5.5s16.56,3.66,15.18,5.5Z"/>
    <path class="cls-1" d="M28.94,11.19c-2.31,1.18-6.52,3.63-6.52,5.81l-1-1s1.61-2.4,6.94-5.76c-1.55-2.33-3.72-4.35-5.57-5.42.39-.51.63-1.13.63-1.82,0-1.66-1.34-3-3-3s-3,1.34-3,3c0,.69.24,1.32.64,1.83-3.31,1.91-7.64,6.83-7.64,11.17,0,4.09,2.46,7.6,5.97,9.15,1.44-.13,2.92-.2,4.39-.2,1.24,0,2.46.08,3.64.21,3.53-1.54,6-5.06,6-9.16,0-1.58-.59-3.24-1.48-4.81Z"/>
  </g>
</svg>