<?xml version="1.0" encoding="UTF-8"?>
<svg id="Layer_2" data-name="Layer 2" xmlns="http://www.w3.org/2000/svg" viewBox="0 0 40.05 114">
  <defs>
    <style>
      .cls-1 {
        fill: #231f20;
        stroke-width: 0px;
      }
    </style>
  </defs>
  <g id="King">
    <path class="cls-1" d="M38.57,107.92H1.48c-.82,0-1.48.39-1.48.87v4.34c0,.48.66.87,1.48.87h37.08c.82,0,1.48-.39,1.48-.87v-4.34c0-.48-.66-.87-1.48-.87Z"/>
    <path class="cls-1" d="M37.31,86.89c-2.26-.96-4.29-.65-8.17-.72-3.17,0-7.06,0-10.82,0-5.07.13-10.21-.34-14.36.34-1.23.29-2.22.78-.97,1.44,1.55.66,4.13.64,6.03.65,6.18,0,16.6,0,22.56,0,1.05.04,7.42-.08,5.8-1.67l-.06-.04Z"/>
    <path class="cls-1" d="M33.34,52.58c-1.74-1.38-3.3-.93-6.29-1.04-2.44,0-5.44,0-8.34,0-3.91.19-7.87-.48-11.06.49-.95.41-1.71,1.11-.75,2.06,1.2.95,3.18.91,4.64.93,4.76,0,12.79,0,17.38,0,.81.05,5.72-.11,4.47-2.38l-.05-.06Z"/>
    <path class="cls-1" d="M30.8,49.28c-1.41-.96-2.68-.65-5.09-.72-1.97,0-4.4,0-6.75,0-3.16.13-6.37-.34-8.96.34-.77.29-1.38.78-.61,1.44.97.66,2.57.64,3.76.65,3.86,0,10.35,0,14.07,0,.65.04,4.63-.08,3.62-1.67l-.04-.04Z"/>
    <path class="cls-1" d="M34.61,57.41c-1.9-2.39-3.62-1.61-6.89-1.79-2.67,0-5.95,0-9.13,0-4.28.33-8.62-.83-12.12.85-1.04.71-1.87,1.93-.82,3.57,1.31,1.64,3.48,1.59,5.08,1.6,5.22,0,14.01,0,19.03,0,.89.09,6.26-.2,4.89-4.13l-.05-.1Z"/>
    <path class="cls-1" d="M31.41,89.37c-1.8-.5-3.7-.1-6.11-.22-6.07.08-12.8-.17-16.28.1-1.51.6-2.44,2.61-2.93,4.12-.38,1.66,1.22,1.34,2.39,1.38,5.18,0,20.78,0,24.16,0,3.12.19.17-4.33-1.13-5.32l-.1-.05Z"/>
    <path class="cls-1" d="M34.62,95.56c-1.7-.4-3.9-.23-7.6-.28-4.71-.01-9.7-.03-14.44-.03-5.48.07-7.88-.29-9.67,1.82-2.3,2.9-2.33,8.11,2.21,9.92,1.28.41,2.74.39,4.19.41,4.41,0,13.88,0,19.53,0,2.28-.05,4.16.18,6.14-.38,4.99-1.87,4.94-9.74-.22-11.43l-.14-.04Z"/>
    <path class="cls-1" d="M28.77,72.15c-.29-2.88-.56-5.68-.76-8.01l-.03-.29c-.13-1.54-.51-1.69-1.84-1.69h-12.28c-.83.02-1.55,0-1.69,1.05-.33,3.31-.72,7.47-1.09,11.48-.21,2.3-.42,4.55-.61,6.56l-.18,1.89c-.02.26-.04.48-.06.67-.07.7-.11,1.12.17,1.46.29.34.67.33,1.31.33h.42c1.96-.03,4.29-.02,6.68,0,1.48.01,2.98.02,4.43.02,2.23,0,4.34-.03,6.06-.12.16,0,.34-.12.44-.26.09-.12.14-.27.13-.43-.17-3.36-.64-8.1-1.09-12.68Z"/>
    <path class="cls-1" d="M11.28,40.77c.29,2.08.56,4.12.76,5.81l.03.21c.13,1.11.51,1.22,1.84,1.22h12.28c.83-.01,1.55,0,1.69-.76.33-2.4.72-5.41,1.09-8.32.21-1.67.42-3.3.61-4.76l.18-1.37c.02-.19.04-.35.06-.49.07-.51.11-.81-.17-1.06-.29-.25-.67-.24-1.31-.24h-.42c-1.96.02-4.29.01-6.68,0-1.48,0-2.98-.02-4.43-.02-2.23,0-4.34.02-6.06.09-.16,0-.34.09-.44.19-.09.09-.14.2-.13.31.17,2.44.64,5.87,1.09,9.19Z"/>
    <path class="cls-1" d="M34.87,28.21c-1.39,2.42-6.01,2.25-14.21,2.25s-14.58.44-15.5-2.25c-1.29-3.76,7.3-6.76,15.5-6.76s15.5,4.51,14.21,6.76Z"/>
    <path class="cls-1" d="M21.32,20.26c1.51,0,2.99.16,4.4.42.48-.9.77-1.91.77-3,0-3.57-2.89-6.46-6.46-6.46s-6.46,2.89-6.46,6.46c0,1.2.35,2.3.92,3.27,2.16-.43,4.51-.68,6.84-.68Z"/>
    <path class="cls-1" d="M14.86,8.4h2.58v2.32c.79-.35,1.66-.55,2.58-.55s1.79.2,2.58.55v-2.32h2.58c.36,0,.65-.29.65-.65v-3.88c0-.36-.29-.65-.65-.65h-2.58V.65c0-.36-.29-.65-.65-.65h-3.88c-.36,0-.65.29-.65.65v2.58h-2.58c-.36,0-.65.29-.65.65v3.88c0,.36.29.65.65.65Z"/>
  </g>
</svg>