<?xml version="1.0" encoding="UTF-8"?>
<svg id="Layer_2" data-name="Layer 2" xmlns="http://www.w3.org/2000/svg" viewBox="0 0 50.63 94.78">
  <defs>
    <style>
      .cls-1 {
        fill: #231f20;
        stroke-width: 0px;
      }
    </style>
  </defs>
  <g id="Knight">
    <path class="cls-1" d="M49.15,88.7H12.06c-.82,0-1.48.39-1.48.87v4.34c0,.48.66.87,1.48.87h37.08c.82,0,1.48-.39,1.48-.87v-4.34c0-.48-.66-.87-1.48-.87Z"/>
    <path class="cls-1" d="M46.71,55.72H14.5c-.71,0-1.29.34-1.29.75v3.77c0,.42.58.75,1.29.75h32.21c.71,0,1.29-.34,1.29-.75v-3.77c0-.42-.58-.75-1.29-.75Z"/>
    <path class="cls-1" d="M41.98,62.52c-1.8-1.14-3.7-.22-6.11-.5-6.07.19-12.8-.39-16.28.24-1.51,1.37-2.44,5.9-2.93,9.3-.38,3.75,1.22,3.03,2.39,3.12,5.18,0,20.78,0,24.16,0,3.12.44.17-9.79-1.13-12.03l-.1-.12Z"/>
    <path class="cls-1" d="M45.2,75.91c-1.7-.4-3.9-.23-7.6-.28-4.71-.01-9.7-.03-14.44-.03-5.48.07-7.88-.29-9.67,1.82-2.3,2.9-2.33,8.11,2.21,9.92,1.28.41,2.74.39,4.19.41,4.41,0,13.88,0,19.53,0,2.28-.05,4.16.18,6.14-.38,4.99-1.87,4.94-9.74-.22-11.43l-.14-.04Z"/>
    <path class="cls-1" d="M47.17,19.99s0-.02,0-.02c-.77-7.67-6.91-13.71-13.87-16.35-.01,0-.03,0-.04-.01C31.48,3.28,22.61-.12,21.82,0c-.04,0-.59.32-.67.46-.27.5.91,5.56,1.12,6.89.01.08-.02.17-.08.22-4.28,3.51-16.6,9.85-19.36,11.94-3.48,2.65-2.57,3.24-1.72,7.29.01.06,0,.12-.02.17-1.39,2.71-1.61,4.11.35,6.63,2.16,2.78,3.13,1.17,4.49,1.19.44,0,2.94.81,3.41.83,2.2.05,1.32-2.32,2.22-3.54.03-.05.08-.08.14-.09,2.44-.58,8.85-1.19,10.86-.81.31.06.79.41.98.67.92,1.3-.04,2.33-.72,3.51-1.92,3.34-6.88,12.67-9.5,15.7-.19.22-.64.69-1.21,1.29-.28.29-.31.72-.13,1.07.01.03.02.05.04.08.15.32.45.54.81.54,5.75.1,11.5.36,17.25.44,1.34.02,2.79-.1,4.26-.15.08,0,.15-.04.2-.11,4.18-6.32,6.28-16.81,6.87-24.33.09-1.1-.62-5.36,1.7-4.28,1.01.47.63,3.82.57,4.8-.45,6.99-2.66,16.8-5.87,22.99-.24.47.04,1.03.56,1.12.78.14,2.08.26,2.87.26h6.53c.14,0,.25-.11.25-.25.03-10.52-.54-24.03-.83-34.54ZM22.24,16.42c-2.26.38-2.51-2.74-.72-2.99,2.16-.31,2.4,2.71.72,2.99Z"/>
  </g>
</svg>