<?xml version="1.0" encoding="UTF-8"?>
<svg id="Layer_2" data-name="Layer 2" xmlns="http://www.w3.org/2000/svg" viewBox="0 0 40.05 84">
  <defs>
    <style>
      .cls-1 {
        fill: #231f20;
        stroke-width: 0px;
      }
    </style>
  </defs>
  <g id="pawn">
    <path class="cls-1" d="M38.57,77.92H1.48c-.82,0-1.48.39-1.48.87v4.34c0,.48.66.87,1.48.87h37.08c.82,0,1.48-.39,1.48-.87v-4.34c0-.48-.66-.87-1.48-.87Z"/>
    <path class="cls-1" d="M31.41,59.73c-1.8-.5-3.7-.1-6.11-.22-6.07.08-12.8-.17-16.28.1-1.51.6-2.44,2.61-2.93,4.12-.38,1.66,1.22,1.34,2.39,1.38,5.18,0,20.78,0,24.16,0,3.12.19.17-4.33-1.13-5.32l-.1-.05Z"/>
    <path class="cls-1" d="M34.62,65.74c-1.7-.4-3.9-.23-7.6-.28-4.71-.01-9.7-.03-14.44-.03-5.48.07-7.88-.29-9.67,1.82-2.3,2.9-2.33,8.11,2.21,9.92,1.28.41,2.74.39,4.19.41,4.41,0,13.88,0,19.53,0,2.28-.05,4.16.18,6.14-.38,4.99-1.87,4.94-9.74-.22-11.43l-.14-.04Z"/>
    <path class="cls-1" d="M34.49,25.33c-1.35,1.79-5.85,1.67-13.84,1.67s-14.19.33-15.1-1.67c-1.26-2.78,7.11-5.01,15.1-5.01s15.1,3.34,13.84,5.01Z"/>
    <path class="cls-1" d="M13.91,20c2.5-.35,5.11-.55,7.7-.55,1.64,0,3.26.12,4.83.33,2.74-1.99,4.52-5.2,4.52-8.84,0-6.04-4.9-10.94-10.94-10.94s-10.94,4.9-10.94,10.94c0,3.77,1.91,7.1,4.82,9.06Z"/>
    <path class="cls-1" d="M27.25,34.26c0-.07,0-.15.01-.22,0-.06,0-.12,0-.18,0,.03,0,.07,0,.1,0,0,0,0,0,0-.1-1.38-.18-2.7-.26-3.92l-.03-.4c-.13-2.08-.51-2.29-1.84-2.28h-10.28c-.83.02-1.55,0-1.69,1.42-.12,1.57-.24,3.29-.37,5.08.36,7.68,0,15.68-2.6,23.22-.05.71-.04,1.19.2,1.59.29.47.67.45,1.31.45h.42c1.96-.04,4.29-.02,6.68,0,1.48.01,2.98.03,4.43.03,2.23,0,4.34-.04,6.06-.16.16-.01.34-.17.44-.35.09-.16.14-.37.13-.58-.01-.36-.03-.76-.05-1.14-2.49-7.36-2.93-15.16-2.57-22.66Z"/>
  </g>
</svg>